<?xml version="1.0" standalone="no"?>
<!DOCTYPE svg PUBLIC "-//W3C//DTD SVG 20010904//EN"
 "http://www.w3.org/TR/2001/REC-SVG-20010904/DTD/svg10.dtd">
<svg version="1.0" xmlns="http://www.w3.org/2000/svg"
 width="256.000000pt" height="256.000000pt" viewBox="0 0 256.000000 256.000000"
 preserveAspectRatio="xMidYMid meet">

<g transform="translate(0.000000,256.000000) scale(0.100000,-0.100000)"
fill="#000000" stroke="none">
<path d="M2161 1544 c0 -11 3 -14 6 -6 3 7 2 16 -1 19 -3 4 -6 -2 -5 -13z"/>
<path d="M2142 1370 c0 -14 2 -19 5 -12 2 6 2 18 0 25 -3 6 -5 1 -5 -13z"/>
<path d="M2021 1364 c0 -11 3 -14 6 -6 3 7 2 16 -1 19 -3 4 -6 -2 -5 -13z"/>
<path d="M1648 1363 c7 -3 16 -2 19 1 4 3 -2 6 -13 5 -11 0 -14 -3 -6 -6z"/>
<path d="M2131 1314 c0 -11 3 -14 6 -6 3 7 2 16 -1 19 -3 4 -6 -2 -5 -13z"/>
<path d="M2005 1288 c-15 -76 -58 -190 -95 -251 -44 -72 -48 -92 -24 -125 19
-28 67 -29 94 -2 45 45 125 236 115 272 -4 16 -3 19 3 9 7 -9 13 1 22 38 7 29
9 55 6 58 -3 4 -6 -3 -6 -14 0 -11 -7 -26 -15 -33 -13 -10 -15 -9 -15 8 0 12
-5 24 -12 28 -7 4 -8 3 -4 -4 4 -7 1 -12 -8 -12 -9 0 -16 -5 -16 -12 0 -6 -3
-8 -7 -4 -4 4 -17 -10 -30 -31 -27 -45 -28 -43 -7 37 8 34 13 64 11 67 -3 2
-8 -11 -12 -29z"/>
<path d="M1820 1295 c0 -5 5 -17 10 -25 5 -8 10 -10 10 -5 0 6 -5 17 -10 25
-5 8 -10 11 -10 5z"/>
<path d="M1638 1283 c7 -3 16 -2 19 1 4 3 -2 6 -13 5 -11 0 -14 -3 -6 -6z"/>
<path d="M1678 1283 c7 -3 16 -2 19 1 4 3 -2 6 -13 5 -11 0 -14 -3 -6 -6z"/>
<path d="M1788 1231 c-15 -21 -17 -21 -22 -4 -3 10 -4 4 -2 -14 1 -18 -1 -30
-6 -27 -4 3 -8 0 -8 -6 0 -15 -63 -40 -103 -40 -62 0 -71 -29 -32 -116 l25
-56 -28 -33 c-112 -133 -367 -425 -372 -425 -3 0 -21 31 -40 70 -18 38 -38 66
-43 63 -6 -3 -7 -1 -3 5 4 6 0 24 -9 39 -13 23 -15 24 -10 6 5 -17 2 -23 -9
-23 -9 0 -16 8 -16 18 0 9 -5 24 -10 32 -9 13 -11 13 -20 0 -5 -8 -7 -24 -3
-35 5 -18 4 -18 -11 -6 -15 13 -16 12 -7 -11 5 -14 28 -62 50 -107 l41 -81
-82 -2 c-153 -3 -213 -5 -224 -6 -5 -1 -9 -16 -8 -33 2 -22 -2 -29 -12 -25 -8
3 -14 1 -14 -4 0 -5 -33 -11 -72 -13 -44 -2 -20 -4 61 -5 l133 -2 -6 -28 c-11
-45 -66 -117 -115 -150 -71 -48 -174 -63 -247 -35 -12 4 -15 3 -10 -5 11 -18
-65 -11 -84 7 -13 13 -15 12 -18 -7 -4 -23 -17 -29 -27 -12 -3 5 -16 15 -28
21 -15 7 -13 3 8 -15 102 -87 275 -114 401 -61 98 41 184 137 206 232 l13 53
105 0 c64 1 113 5 125 13 25 15 76 70 270 292 82 94 152 171 156 173 3 2 14
-16 23 -39 16 -40 16 -43 -1 -53 -43 -24 -113 -101 -144 -159 -29 -54 -34 -73
-37 -152 -3 -75 0 -100 18 -148 35 -92 92 -155 184 -202 75 -38 83 -40 165
-39 158 2 276 75 343 212 31 62 33 73 32 167 0 89 -3 107 -29 160 -36 76 -104
143 -180 181 -54 26 -70 29 -157 29 l-97 0 -51 115 c-28 63 -50 118 -50 123 0
4 9 7 19 7 28 0 52 11 45 21 -3 5 1 6 9 4 17 -7 51 30 42 45 -3 6 -1 9 6 8 13
-3 27 33 27 72 0 20 -2 18 -10 -10 l-11 -35 -11 40 -12 40 -16 -24z m-168
-117 c0 -8 -5 -12 -10 -9 -6 4 -8 11 -5 16 9 14 15 11 15 -7z m420 -414 c87
-56 135 -145 135 -250 -1 -113 -58 -205 -160 -257 -40 -21 -64 -26 -120 -26
-40 1 -85 7 -105 16 -151 66 -216 219 -159 372 21 55 101 149 122 142 6 -2 34
-59 64 -127 60 -141 71 -155 106 -146 38 9 40 36 11 102 -15 32 -42 94 -60
138 l-34 79 74 -5 c62 -4 83 -10 126 -38z m-1160 -244 c0 -11 -19 -15 -25 -6
-3 5 1 10 9 10 9 0 16 -2 16 -4z"/>
<path d="M1015 750 c9 -16 18 -30 21 -30 2 0 -2 14 -11 30 -9 17 -18 30 -21
30 -2 0 2 -13 11 -30z"/>
<path d="M1001 557 c-13 -21 -12 -21 5 -5 10 10 16 20 13 22 -3 3 -11 -5 -18
-17z"/>
<path d="M939 551 c13 -12 28 -21 34 -21 12 0 11 0 -28 24 l-30 17 24 -20z"/>
<path d="M281 394 c0 -11 3 -14 6 -6 3 7 2 16 -1 19 -3 4 -6 -2 -5 -13z"/>
<path d="M350 226 c0 -2 8 -10 18 -17 15 -13 16 -12 3 4 -13 16 -21 21 -21 13z"/>
<path d="M492 204 c10 -10 20 -16 22 -13 3 3 -5 11 -17 18 -21 13 -21 12 -5
-5z"/>
</g>
</svg>
